# xmcd
#
# Track frame offsets: 
#        150
#        9881
#        22149
#        46213
#        60110
#        74020
#        95412
#        109539
#        139586
#        161216
#        185694
#        210654
#        233990
#        266562
#        277520
#
# Disc length: 4415 seconds
#
# Revision: 0
# Processed by: cddbd v1.5.2PL0 Copyright (c) Steve Scherf et al.
# Submitted via: ExactAudioCopy v0.99pb5
#
DISCID=c8113d0f
DTITLE=Stevie Ray Vaughan and Double Trouble - Live at Carnegie Hall
DYEAR=1997
DGENRE=Blues
TTITLE0=Intro - Ken Dashow - John Hammond
TTITLE1=Scuttle Buttin'
TTITLE2=Testifyin'
TTITLE3=Love Struck Baby
TTITLE4=Honey Bee
TTITLE5=Cold Shot
TTITLE6=Letter to My Girlfriend
TTITLE7=Dirty Pool
TTITLE8=Pride and Joy
TTITLE9=The Things That I Used to Do
TTITLE10=C.O.D
TTITLE11=Iced Over
TTITLE12=Lenny
TTITLE13=Rude Mood
TTITLE14=Voodoo Child (Slight Return)
EXTD=
EXTT0=
EXTT1=
EXTT2=
EXTT3=
EXTT4=
EXTT5=
EXTT6=
EXTT7=
EXTT8=
EXTT9=
EXTT10=
EXTT11=
EXTT12=
EXTT13=
EXTT14=
PLAYORDER=
